<?xml version="1.0" encoding="UTF-8" standalone="no"?>
<!DOCTYPE svg PUBLIC "-//W3C//DTD SVG 1.1//EN"
 "http://www.w3.org/Graphics/SVG/1.1/DTD/svg11.dtd">
<!-- Generated by graphviz version 9.0.0 (0)
 -->
<!-- Title: dependency&#45;cruiser output Pages: 1 -->
<svg width="1078pt" height="658pt"
 viewBox="0.00 0.00 1078.00 658.00" xmlns="http://www.w3.org/2000/svg" xmlns:xlink="http://www.w3.org/1999/xlink">
<g id="graph0" class="graph" transform="scale(1 1) rotate(0) translate(4 654)">
<title>dependency&#45;cruiser output</title>
<polygon fill="white" stroke="none" points="-4,4 -4,-654 1074,-654 1074,4 -4,4"/>
<g id="clust1" class="cluster">
<title>cluster_src</title>
<path fill="#ffffff" stroke="black" stroke-width="2" d="M20,-8C20,-8 1050,-8 1050,-8 1056,-8 1062,-14 1062,-20 1062,-20 1062,-630 1062,-630 1062,-636 1056,-642 1050,-642 1050,-642 20,-642 20,-642 14,-642 8,-636 8,-630 8,-630 8,-20 8,-20 8,-14 14,-8 20,-8"/>
<text text-anchor="middle" x="535" y="-629.45" font-family="Helvetica,sans-Serif" font-weight="bold" font-size="9.00">src</text>
</g>
<g id="clust2" class="cluster">
<title>cluster_src/db</title>
<path fill="#ffffff" stroke="black" stroke-width="2" d="M651.12,-170C651.12,-170 890.75,-170 890.75,-170 896.75,-170 902.75,-176 902.75,-182 902.75,-182 902.75,-424 902.75,-424 902.75,-430 896.75,-436 890.75,-436 890.75,-436 651.12,-436 651.12,-436 645.12,-436 639.12,-430 639.12,-424 639.12,-424 639.12,-182 639.12,-182 639.12,-176 645.12,-170 651.12,-170"/>
<text text-anchor="middle" x="770.94" y="-423.45" font-family="Helvetica,sans-Serif" font-weight="bold" font-size="9.00">db</text>
</g>
<g id="clust3" class="cluster">
<title>cluster_src/db/queries</title>
<path fill="#ffffff" stroke="black" stroke-width="2" d="M737.25,-178C737.25,-178 812.75,-178 812.75,-178 818.75,-178 824.75,-184 824.75,-190 824.75,-190 824.75,-398 824.75,-398 824.75,-404 818.75,-410 812.75,-410 812.75,-410 737.25,-410 737.25,-410 731.25,-410 725.25,-404 725.25,-398 725.25,-398 725.25,-190 725.25,-190 725.25,-184 731.25,-178 737.25,-178"/>
<text text-anchor="middle" x="775" y="-397.45" font-family="Helvetica,sans-Serif" font-weight="bold" font-size="9.00">queries</text>
</g>
<g id="clust4" class="cluster">
<title>cluster_src/discord</title>
<path fill="#ffffff" stroke="black" stroke-width="2" d="M271.25,-114C271.25,-114 611,-114 611,-114 617,-114 623,-120 623,-126 623,-126 623,-248 623,-248 623,-254 617,-260 611,-260 611,-260 271.25,-260 271.25,-260 265.25,-260 259.25,-254 259.25,-248 259.25,-248 259.25,-126 259.25,-126 259.25,-120 265.25,-114 271.25,-114"/>
<text text-anchor="middle" x="441.12" y="-247.45" font-family="Helvetica,sans-Serif" font-weight="bold" font-size="9.00">discord</text>
</g>
<g id="clust5" class="cluster">
<title>cluster_src/discord/commands</title>
<path fill="#ffffff" stroke="black" stroke-width="2" d="M489,-122C489,-122 603,-122 603,-122 609,-122 615,-128 615,-134 615,-134 615,-222 615,-222 615,-228 609,-234 603,-234 603,-234 489,-234 489,-234 483,-234 477,-228 477,-222 477,-222 477,-134 477,-134 477,-128 483,-122 489,-122"/>
<text text-anchor="middle" x="546" y="-221.45" font-family="Helvetica,sans-Serif" font-weight="bold" font-size="9.00">commands</text>
</g>
<g id="clust6" class="cluster">
<title>cluster_src/middleware</title>
<path fill="#ffffff" stroke="black" stroke-width="2" d="M176,-247C176,-247 222,-247 222,-247 228,-247 234,-253 234,-259 234,-259 234,-317 234,-317 234,-323 228,-329 222,-329 222,-329 176,-329 176,-329 170,-329 164,-323 164,-317 164,-317 164,-259 164,-259 164,-253 170,-247 176,-247"/>
<text text-anchor="middle" x="199" y="-316.45" font-family="Helvetica,sans-Serif" font-weight="bold" font-size="9.00">middleware</text>
</g>
<g id="clust7" class="cluster">
<title>cluster_src/routes</title>
<path fill="#ffffff" stroke="black" stroke-width="2" d="M90,-337C90,-337 239.25,-337 239.25,-337 245.25,-337 251.25,-343 251.25,-349 251.25,-349 251.25,-561 251.25,-561 251.25,-567 245.25,-573 239.25,-573 239.25,-573 90,-573 90,-573 84,-573 78,-567 78,-561 78,-561 78,-349 78,-349 78,-343 84,-337 90,-337"/>
<text text-anchor="middle" x="164.62" y="-560.45" font-family="Helvetica,sans-Serif" font-weight="bold" font-size="9.00">routes</text>
</g>
<g id="clust8" class="cluster">
<title>cluster_src/routes/v1</title>
<path fill="#ffffff" stroke="black" stroke-width="2" d="M98,-345C98,-345 231.25,-345 231.25,-345 237.25,-345 243.25,-351 243.25,-357 243.25,-357 243.25,-535 243.25,-535 243.25,-541 237.25,-547 231.25,-547 231.25,-547 98,-547 98,-547 92,-547 86,-541 86,-535 86,-535 86,-357 86,-357 86,-351 92,-345 98,-345"/>
<text text-anchor="middle" x="164.62" y="-534.45" font-family="Helvetica,sans-Serif" font-weight="bold" font-size="9.00">v1</text>
</g>
<g id="clust9" class="cluster">
<title>cluster_src/routes/v1/auth</title>
<path fill="#ffffff" stroke="black" stroke-width="2" d="M106,-443C106,-443 222,-443 222,-443 228,-443 234,-449 234,-455 234,-455 234,-483 234,-483 234,-489 228,-495 222,-495 222,-495 106,-495 106,-495 100,-495 94,-489 94,-483 94,-483 94,-455 94,-455 94,-449 100,-443 106,-443"/>
<text text-anchor="middle" x="164" y="-482.45" font-family="Helvetica,sans-Serif" font-weight="bold" font-size="9.00">auth</text>
</g>
<g id="clust10" class="cluster">
<title>cluster_src/routes/v1/file</title>
<path fill="#ffffff" stroke="black" stroke-width="2" d="M106,-353C106,-353 223.25,-353 223.25,-353 229.25,-353 235.25,-359 235.25,-365 235.25,-365 235.25,-423 235.25,-423 235.25,-429 229.25,-435 223.25,-435 223.25,-435 106,-435 106,-435 100,-435 94,-429 94,-423 94,-423 94,-365 94,-365 94,-359 100,-353 106,-353"/>
<text text-anchor="middle" x="164.62" y="-422.45" font-family="Helvetica,sans-Serif" font-weight="bold" font-size="9.00">file</text>
</g>
<g id="clust11" class="cluster">
<title>cluster_src/types</title>
<path fill="#ffffff" stroke="black" stroke-width="2" d="M643,-16C643,-16 705.25,-16 705.25,-16 711.25,-16 717.25,-22 717.25,-28 717.25,-28 717.25,-150 717.25,-150 717.25,-156 711.25,-162 705.25,-162 705.25,-162 643,-162 643,-162 637,-162 631,-156 631,-150 631,-150 631,-28 631,-28 631,-22 637,-16 643,-16"/>
<text text-anchor="middle" x="674.12" y="-149.45" font-family="Helvetica,sans-Serif" font-weight="bold" font-size="9.00">types</text>
</g>
<g id="clust12" class="cluster">
<title>cluster_src/types/discord</title>
<path fill="#ffffff" stroke="black" stroke-width="2" d="M651,-84C651,-84 697.25,-84 697.25,-84 703.25,-84 709.25,-90 709.25,-96 709.25,-96 709.25,-124 709.25,-124 709.25,-130 703.25,-136 697.25,-136 697.25,-136 651,-136 651,-136 645,-136 639,-130 639,-124 639,-124 639,-96 639,-96 639,-90 645,-84 651,-84"/>
<text text-anchor="middle" x="674.12" y="-123.45" font-family="Helvetica,sans-Serif" font-weight="bold" font-size="9.00">discord</text>
</g>
<g id="clust13" class="cluster">
<title>cluster_src/types/express</title>
<path fill="#ffffff" stroke="black" stroke-width="2" d="M651,-24C651,-24 697.25,-24 697.25,-24 703.25,-24 709.25,-30 709.25,-36 709.25,-36 709.25,-64 709.25,-64 709.25,-70 703.25,-76 697.25,-76 697.25,-76 651,-76 651,-76 645,-76 639,-70 639,-64 639,-64 639,-36 639,-36 639,-30 645,-24 651,-24"/>
<text text-anchor="middle" x="674.12" y="-63.45" font-family="Helvetica,sans-Serif" font-weight="bold" font-size="9.00">express</text>
</g>
<g id="clust14" class="cluster">
<title>cluster_src/utils</title>
<path fill="#ffffff" stroke="black" stroke-width="2" d="M844.75,-444C844.75,-444 1042,-444 1042,-444 1048,-444 1054,-450 1054,-456 1054,-456 1054,-604 1054,-604 1054,-610 1048,-616 1042,-616 1042,-616 844.75,-616 844.75,-616 838.75,-616 832.75,-610 832.75,-604 832.75,-604 832.75,-456 832.75,-456 832.75,-450 838.75,-444 844.75,-444"/>
<text text-anchor="middle" x="943.38" y="-603.45" font-family="Helvetica,sans-Serif" font-weight="bold" font-size="9.00">utils</text>
</g>
<!-- src/db/app.ts -->
<g id="node1" class="node">
<title>src/db/app.ts</title>
<g id="a_node1"><a xlink:href="src/db/app.ts" xlink:title="app.ts">
<path fill="#ddfeff" stroke="black" d="M888.83,-293.88C888.83,-293.88 846.67,-293.88 846.67,-293.88 843.71,-293.88 840.75,-290.92 840.75,-287.96 840.75,-287.96 840.75,-282.04 840.75,-282.04 840.75,-279.08 843.71,-276.12 846.67,-276.12 846.67,-276.12 888.83,-276.12 888.83,-276.12 891.79,-276.12 894.75,-279.08 894.75,-282.04 894.75,-282.04 894.75,-287.96 894.75,-287.96 894.75,-290.92 891.79,-293.88 888.83,-293.88"/>
<text text-anchor="start" x="855.38" y="-281.32" font-family="Helvetica,sans-Serif" font-size="9.00">app.ts</text>
</a>
</g>
</g>
<!-- src/db/index.ts -->
<g id="node2" class="node">
<title>src/db/index.ts</title>
<g id="a_node2"><a xlink:href="src/db/index.ts" xlink:title="index.ts">
<path fill="#ddfeff" stroke="black" d="M695.21,-293.88C695.21,-293.88 653.04,-293.88 653.04,-293.88 650.08,-293.88 647.12,-290.92 647.12,-287.96 647.12,-287.96 647.12,-282.04 647.12,-282.04 647.12,-279.08 650.08,-276.12 653.04,-276.12 653.04,-276.12 695.21,-276.12 695.21,-276.12 698.17,-276.12 701.12,-279.08 701.12,-282.04 701.12,-282.04 701.12,-287.96 701.12,-287.96 701.12,-290.92 698.17,-293.88 695.21,-293.88"/>
<text text-anchor="start" x="658.75" y="-281.32" font-family="Helvetica,sans-Serif" font-size="9.00">index.ts</text>
</a>
</g>
</g>
<!-- src/db/queries/confirmUser.ts -->
<g id="node3" class="node">
<title>src/db/queries/confirmUser.ts</title>
<g id="a_node3"><a xlink:href="src/db/queries/confirmUser.ts" xlink:title="confirmUser.ts">
<path fill="#ddfeff" stroke="black" d="M805.96,-383.88C805.96,-383.88 744.04,-383.88 744.04,-383.88 741.08,-383.88 738.12,-380.92 738.12,-377.96 738.12,-377.96 738.12,-372.04 738.12,-372.04 738.12,-369.08 741.08,-366.12 744.04,-366.12 744.04,-366.12 805.96,-366.12 805.96,-366.12 808.92,-366.12 811.88,-369.08 811.88,-372.04 811.88,-372.04 811.88,-377.96 811.88,-377.96 811.88,-380.92 808.92,-383.88 805.96,-383.88"/>
<text text-anchor="start" x="746.12" y="-371.32" font-family="Helvetica,sans-Serif" font-size="9.00">confirmUser.ts</text>
</a>
</g>
</g>
<!-- src/db/index.ts&#45;&gt;src/db/queries/confirmUser.ts -->
<g id="edge1" class="edge">
<title>src/db/index.ts&#45;&gt;src/db/queries/confirmUser.ts</title>
<path fill="none" stroke="#000000" stroke-width="2" stroke-opacity="0.200000" d="M678.86,-294.34C685.67,-310.21 701.64,-342.42 725.25,-360 726.66,-361.05 728.15,-362.03 729.69,-362.94"/>
<polygon fill="#000000" fill-opacity="0.200000" stroke="#000000" stroke-width="2" stroke-opacity="0.200000" points="728.74,-364.81 735.04,-365.6 730.61,-361.05 728.74,-364.81"/>
</g>
<!-- src/db/queries/deleteUser.ts -->
<g id="node4" class="node">
<title>src/db/queries/deleteUser.ts</title>
<g id="a_node4"><a xlink:href="src/db/queries/deleteUser.ts" xlink:title="deleteUser.ts">
<path fill="#ddfeff" stroke="black" d="M803.71,-323.88C803.71,-323.88 746.29,-323.88 746.29,-323.88 743.33,-323.88 740.38,-320.92 740.38,-317.96 740.38,-317.96 740.38,-312.04 740.38,-312.04 740.38,-309.08 743.33,-306.12 746.29,-306.12 746.29,-306.12 803.71,-306.12 803.71,-306.12 806.67,-306.12 809.62,-309.08 809.62,-312.04 809.62,-312.04 809.62,-317.96 809.62,-317.96 809.62,-320.92 806.67,-323.88 803.71,-323.88"/>
<text text-anchor="start" x="748.38" y="-311.32" font-family="Helvetica,sans-Serif" font-size="9.00">deleteUser.ts</text>
</a>
</g>
</g>
<!-- src/db/index.ts&#45;&gt;src/db/queries/deleteUser.ts -->
<g id="edge2" class="edge">
<title>src/db/index.ts&#45;&gt;src/db/queries/deleteUser.ts</title>
<path fill="none" stroke="#000000" stroke-width="2" stroke-opacity="0.200000" d="M701.62,-293.04C711.83,-296.14 723.72,-299.74 734.88,-303.13"/>
<polygon fill="#000000" fill-opacity="0.200000" stroke="#000000" stroke-width="2" stroke-opacity="0.200000" points="733.98,-305.05 740.33,-304.78 735.2,-301.03 733.98,-305.05"/>
</g>
<!-- src/db/queries/getFileData.ts -->
<g id="node5" class="node">
<title>src/db/queries/getFileData.ts</title>
<g id="a_node5"><a xlink:href="src/db/queries/getFileData.ts" xlink:title="getFileData.ts">
<path fill="#ddfeff" stroke="black" d="M804.83,-293.88C804.83,-293.88 745.17,-293.88 745.17,-293.88 742.21,-293.88 739.25,-290.92 739.25,-287.96 739.25,-287.96 739.25,-282.04 739.25,-282.04 739.25,-279.08 742.21,-276.12 745.17,-276.12 745.17,-276.12 804.83,-276.12 804.83,-276.12 807.79,-276.12 810.75,-279.08 810.75,-282.04 810.75,-282.04 810.75,-287.96 810.75,-287.96 810.75,-290.92 807.79,-293.88 804.83,-293.88"/>
<text text-anchor="start" x="747.25" y="-281.32" font-family="Helvetica,sans-Serif" font-size="9.00">getFileData.ts</text>
</a>
</g>
</g>
<!-- src/db/index.ts&#45;&gt;src/db/queries/getFileData.ts -->
<g id="edge3" class="edge">
<title>src/db/index.ts&#45;&gt;src/db/queries/getFileData.ts</title>
<path fill="none" stroke="#000000" stroke-width="2" stroke-opacity="0.200000" d="M701.62,-285C710.38,-285 720.37,-285 730.08,-285"/>
<polygon fill="#000000" fill-opacity="0.200000" stroke="#000000" stroke-width="2" stroke-opacity="0.200000" points="729.84,-287.1 735.84,-285 729.84,-282.9 729.84,-287.1"/>
</g>
<!-- src/db/queries/getUserInfo.ts -->
<g id="node6" class="node">
<title>src/db/queries/getUserInfo.ts</title>
<g id="a_node6"><a xlink:href="src/db/queries/getUserInfo.ts" xlink:title="getUserInfo.ts">
<path fill="#ddfeff" stroke="black" d="M804.83,-263.88C804.83,-263.88 745.17,-263.88 745.17,-263.88 742.21,-263.88 739.25,-260.92 739.25,-257.96 739.25,-257.96 739.25,-252.04 739.25,-252.04 739.25,-249.08 742.21,-246.12 745.17,-246.12 745.17,-246.12 804.83,-246.12 804.83,-246.12 807.79,-246.12 810.75,-249.08 810.75,-252.04 810.75,-252.04 810.75,-257.96 810.75,-257.96 810.75,-260.92 807.79,-263.88 804.83,-263.88"/>
<text text-anchor="start" x="747.25" y="-251.32" font-family="Helvetica,sans-Serif" font-size="9.00">getUserInfo.ts</text>
</a>
</g>
</g>
<!-- src/db/index.ts&#45;&gt;src/db/queries/getUserInfo.ts -->
<g id="edge4" class="edge">
<title>src/db/index.ts&#45;&gt;src/db/queries/getUserInfo.ts</title>
<path fill="none" stroke="#000000" stroke-width="2" stroke-opacity="0.200000" d="M701.62,-276.96C711.83,-273.86 723.72,-270.26 734.88,-266.87"/>
<polygon fill="#000000" fill-opacity="0.200000" stroke="#000000" stroke-width="2" stroke-opacity="0.200000" points="735.2,-268.97 740.33,-265.22 733.98,-264.95 735.2,-268.97"/>
</g>
<!-- src/db/queries/isUserIdTaken.ts -->
<g id="node7" class="node">
<title>src/db/queries/isUserIdTaken.ts</title>
<g id="a_node7"><a xlink:href="src/db/queries/isUserIdTaken.ts" xlink:title="isUserIdTaken.ts">
<path fill="#ddfeff" stroke="black" d="M810.83,-233.88C810.83,-233.88 739.17,-233.88 739.17,-233.88 736.21,-233.88 733.25,-230.92 733.25,-227.96 733.25,-227.96 733.25,-222.04 733.25,-222.04 733.25,-219.08 736.21,-216.12 739.17,-216.12 739.17,-216.12 810.83,-216.12 810.83,-216.12 813.79,-216.12 816.75,-219.08 816.75,-222.04 816.75,-222.04 816.75,-227.96 816.75,-227.96 816.75,-230.92 813.79,-233.88 810.83,-233.88"/>
<text text-anchor="start" x="741.25" y="-221.32" font-family="Helvetica,sans-Serif" font-size="9.00">isUserIdTaken.ts</text>
</a>
</g>
</g>
<!-- src/db/index.ts&#45;&gt;src/db/queries/isUserIdTaken.ts -->
<g id="edge5" class="edge">
<title>src/db/index.ts&#45;&gt;src/db/queries/isUserIdTaken.ts</title>
<path fill="none" stroke="#000000" stroke-width="2" stroke-opacity="0.200000" d="M683.09,-275.77C692.29,-265.64 708.36,-249.56 725.25,-240 726.55,-239.27 727.89,-238.56 729.25,-237.89"/>
<polygon fill="#000000" fill-opacity="0.200000" stroke="#000000" stroke-width="2" stroke-opacity="0.200000" points="729.9,-239.9 734.56,-235.58 728.22,-236.05 729.9,-239.9"/>
</g>
<!-- src/db/queries/postFileData.ts -->
<g id="node8" class="node">
<title>src/db/queries/postFileData.ts</title>
<g id="a_node8"><a xlink:href="src/db/queries/postFileData.ts" xlink:title="postFileData.ts">
<path fill="#ddfeff" stroke="black" d="M807.08,-203.88C807.08,-203.88 742.92,-203.88 742.92,-203.88 739.96,-203.88 737,-200.92 737,-197.96 737,-197.96 737,-192.04 737,-192.04 737,-189.08 739.96,-186.12 742.92,-186.12 742.92,-186.12 807.08,-186.12 807.08,-186.12 810.04,-186.12 813,-189.08 813,-192.04 813,-192.04 813,-197.96 813,-197.96 813,-200.92 810.04,-203.88 807.08,-203.88"/>
<text text-anchor="start" x="745" y="-191.32" font-family="Helvetica,sans-Serif" font-size="9.00">postFileData.ts</text>
</a>
</g>
</g>
<!-- src/db/index.ts&#45;&gt;src/db/queries/postFileData.ts -->
<g id="edge6" class="edge">
<title>src/db/index.ts&#45;&gt;src/db/queries/postFileData.ts</title>
<path fill="none" stroke="#000000" stroke-width="2" stroke-opacity="0.200000" d="M678.86,-275.66C685.67,-259.79 701.64,-227.58 725.25,-210 726.32,-209.21 727.42,-208.45 728.56,-207.74"/>
<polygon fill="#000000" fill-opacity="0.200000" stroke="#000000" stroke-width="2" stroke-opacity="0.200000" points="729.48,-209.64 733.82,-204.99 727.53,-205.91 729.48,-209.64"/>
</g>
<!-- src/db/queries/registerUser.ts -->
<g id="node9" class="node">
<title>src/db/queries/registerUser.ts</title>
<g id="a_node9"><a xlink:href="src/db/queries/registerUser.ts" xlink:title="registerUser.ts">
<path fill="#ddfeff" stroke="black" d="M806.33,-353.88C806.33,-353.88 743.67,-353.88 743.67,-353.88 740.71,-353.88 737.75,-350.92 737.75,-347.96 737.75,-347.96 737.75,-342.04 737.75,-342.04 737.75,-339.08 740.71,-336.12 743.67,-336.12 743.67,-336.12 806.33,-336.12 806.33,-336.12 809.29,-336.12 812.25,-339.08 812.25,-342.04 812.25,-342.04 812.25,-347.96 812.25,-347.96 812.25,-350.92 809.29,-353.88 806.33,-353.88"/>
<text text-anchor="start" x="745.75" y="-341.32" font-family="Helvetica,sans-Serif" font-size="9.00">registerUser.ts</text>
</a>
</g>
</g>
<!-- src/db/index.ts&#45;&gt;src/db/queries/registerUser.ts -->
<g id="edge7" class="edge">
<title>src/db/index.ts&#45;&gt;src/db/queries/registerUser.ts</title>
<path fill="none" stroke="#000000" stroke-width="2" stroke-opacity="0.200000" d="M683.09,-294.23C692.29,-304.36 708.36,-320.44 725.25,-330 726.55,-330.73 727.89,-331.44 729.25,-332.11"/>
<polygon fill="#000000" fill-opacity="0.200000" stroke="#000000" stroke-width="2" stroke-opacity="0.200000" points="728.22,-333.95 734.56,-334.42 729.9,-330.1 728.22,-333.95"/>
</g>
<!-- src/db/queries/confirmUser.ts&#45;&gt;src/db/app.ts -->
<g id="edge8" class="edge">
<title>src/db/queries/confirmUser.ts&#45;&gt;src/db/app.ts</title>
<path fill="none" stroke="#000000" stroke-width="2" stroke-opacity="0.200000" d="M812.21,-367.33C816.71,-365.41 821.03,-363 824.75,-360 843.17,-345.13 854.89,-319.89 861.14,-302.84"/>
<polygon fill="#000000" fill-opacity="0.200000" stroke="#000000" stroke-width="2" stroke-opacity="0.200000" points="863.11,-303.55 863.07,-297.2 859.14,-302.19 863.11,-303.55"/>
</g>
<!-- src/utils/index.ts -->
<g id="node10" class="node">
<title>src/utils/index.ts</title>
<g id="a_node10"><a xlink:href="src/utils/index.ts" xlink:title="index.ts">
<path fill="#ddfeff" stroke="black" d="M888.83,-495.88C888.83,-495.88 846.67,-495.88 846.67,-495.88 843.71,-495.88 840.75,-492.92 840.75,-489.96 840.75,-489.96 840.75,-484.04 840.75,-484.04 840.75,-481.08 843.71,-478.12 846.67,-478.12 846.67,-478.12 888.83,-478.12 888.83,-478.12 891.79,-478.12 894.75,-481.08 894.75,-484.04 894.75,-484.04 894.75,-489.96 894.75,-489.96 894.75,-492.92 891.79,-495.88 888.83,-495.88"/>
<text text-anchor="start" x="852.38" y="-483.32" font-family="Helvetica,sans-Serif" font-size="9.00">index.ts</text>
</a>
</g>
</g>
<!-- src/db/queries/confirmUser.ts&#45;&gt;src/utils/index.ts -->
<g id="edge9" class="edge">
<title>src/db/queries/confirmUser.ts&#45;&gt;src/utils/index.ts</title>
<path fill="none" stroke="#000000" stroke-width="2" stroke-opacity="0.200000" d="M783.43,-384.17C798.78,-403.12 834.2,-446.83 853.55,-470.71"/>
<polygon fill="#000000" fill-opacity="0.200000" stroke="#000000" stroke-width="2" stroke-opacity="0.200000" points="851.91,-472.02 857.32,-475.36 855.17,-469.37 851.91,-472.02"/>
</g>
<!-- src/db/queries/deleteUser.ts&#45;&gt;src/db/app.ts -->
<g id="edge10" class="edge">
<title>src/db/queries/deleteUser.ts&#45;&gt;src/db/app.ts</title>
<path fill="none" stroke="#000000" stroke-width="2" stroke-opacity="0.200000" d="M807.01,-305.68C812.92,-303.85 819.04,-301.9 824.75,-300 827.47,-299.1 830.28,-298.14 833.1,-297.17"/>
<polygon fill="#000000" fill-opacity="0.200000" stroke="#000000" stroke-width="2" stroke-opacity="0.200000" points="833.67,-299.19 838.64,-295.23 832.28,-295.23 833.67,-299.19"/>
</g>
<!-- src/db/queries/getFileData.ts&#45;&gt;src/db/app.ts -->
<g id="edge11" class="edge">
<title>src/db/queries/getFileData.ts&#45;&gt;src/db/app.ts</title>
<path fill="none" stroke="#000000" stroke-width="2" stroke-opacity="0.200000" d="M811.09,-285C817.81,-285 824.85,-285 831.57,-285"/>
<polygon fill="#000000" fill-opacity="0.200000" stroke="#000000" stroke-width="2" stroke-opacity="0.200000" points="831.46,-287.1 837.46,-285 831.46,-282.9 831.46,-287.1"/>
</g>
<!-- src/db/queries/getUserInfo.ts&#45;&gt;src/db/app.ts -->
<g id="edge12" class="edge">
<title>src/db/queries/getUserInfo.ts&#45;&gt;src/db/app.ts</title>
<path fill="none" stroke="#000000" stroke-width="2" stroke-opacity="0.200000" d="M807.01,-264.32C812.92,-266.15 819.04,-268.1 824.75,-270 827.47,-270.9 830.28,-271.86 833.1,-272.83"/>
<polygon fill="#000000" fill-opacity="0.200000" stroke="#000000" stroke-width="2" stroke-opacity="0.200000" points="832.28,-274.77 838.64,-274.77 833.67,-270.81 832.28,-274.77"/>
</g>
<!-- src/db/queries/isUserIdTaken.ts&#45;&gt;src/db/app.ts -->
<g id="edge13" class="edge">
<title>src/db/queries/isUserIdTaken.ts&#45;&gt;src/db/app.ts</title>
<path fill="none" stroke="#000000" stroke-width="2" stroke-opacity="0.200000" d="M813.62,-234.36C817.51,-235.97 821.3,-237.84 824.75,-240 836.62,-247.43 847.33,-259.03 854.97,-268.6"/>
<polygon fill="#000000" fill-opacity="0.200000" stroke="#000000" stroke-width="2" stroke-opacity="0.200000" points="853.26,-269.81 858.57,-273.31 856.6,-267.26 853.26,-269.81"/>
</g>
<!-- src/db/queries/postFileData.ts&#45;&gt;src/db/app.ts -->
<g id="edge14" class="edge">
<title>src/db/queries/postFileData.ts&#45;&gt;src/db/app.ts</title>
<path fill="none" stroke="#000000" stroke-width="2" stroke-opacity="0.200000" d="M813.21,-203.1C817.35,-204.95 821.31,-207.22 824.75,-210 843.17,-224.87 854.89,-250.11 861.14,-267.16"/>
<polygon fill="#000000" fill-opacity="0.200000" stroke="#000000" stroke-width="2" stroke-opacity="0.200000" points="859.14,-267.81 863.07,-272.8 863.11,-266.45 859.14,-267.81"/>
</g>
<!-- src/db/queries/registerUser.ts&#45;&gt;src/db/app.ts -->
<g id="edge15" class="edge">
<title>src/db/queries/registerUser.ts&#45;&gt;src/db/app.ts</title>
<path fill="none" stroke="#000000" stroke-width="2" stroke-opacity="0.200000" d="M812.61,-336.06C816.85,-334.35 821,-332.35 824.75,-330 836.62,-322.57 847.33,-310.97 854.97,-301.4"/>
<polygon fill="#000000" fill-opacity="0.200000" stroke="#000000" stroke-width="2" stroke-opacity="0.200000" points="856.6,-302.74 858.57,-296.69 853.26,-300.19 856.6,-302.74"/>
</g>
<!-- src/db/queries/registerUser.ts&#45;&gt;src/utils/index.ts -->
<g id="edge16" class="edge">
<title>src/db/queries/registerUser.ts&#45;&gt;src/utils/index.ts</title>
<path fill="none" stroke="#000000" stroke-width="2" stroke-opacity="0.200000" d="M812.53,-350.91C817.21,-353.09 821.49,-356.03 824.75,-360 835.94,-373.65 826.56,-422.48 832.75,-439 837.17,-450.8 845.24,-462.38 852.4,-471.21"/>
<polygon fill="#000000" fill-opacity="0.200000" stroke="#000000" stroke-width="2" stroke-opacity="0.200000" points="850.66,-472.41 856.15,-475.62 853.86,-469.69 850.66,-472.41"/>
</g>
<!-- src/utils/Logger.ts -->
<g id="node29" class="node">
<title>src/utils/Logger.ts</title>
<g id="a_node29"><a xlink:href="src/utils/Logger.ts" xlink:title="Logger.ts">
<path fill="#ddfeff" stroke="black" d="M999.46,-469.88C999.46,-469.88 957.29,-469.88 957.29,-469.88 954.33,-469.88 951.38,-466.92 951.38,-463.96 951.38,-463.96 951.38,-458.04 951.38,-458.04 951.38,-455.08 954.33,-452.12 957.29,-452.12 957.29,-452.12 999.46,-452.12 999.46,-452.12 1002.42,-452.12 1005.38,-455.08 1005.38,-458.04 1005.38,-458.04 1005.38,-463.96 1005.38,-463.96 1005.38,-466.92 1002.42,-469.88 999.46,-469.88"/>
<text text-anchor="start" x="959.62" y="-457.32" font-family="Helvetica,sans-Serif" font-size="9.00">Logger.ts</text>
</a>
</g>
</g>
<!-- src/utils/index.ts&#45;&gt;src/utils/Logger.ts -->
<g id="edge50" class="edge">
<title>src/utils/index.ts&#45;&gt;src/utils/Logger.ts</title>
<path fill="none" stroke="#000000" stroke-width="2" stroke-opacity="0.200000" d="M894.93,-479.99C900.16,-478.64 905.62,-477.25 910.75,-476 921,-473.51 932.17,-470.93 942.38,-468.64"/>
<polygon fill="#000000" fill-opacity="0.200000" stroke="#000000" stroke-width="2" stroke-opacity="0.200000" points="942.71,-470.72 948.11,-467.36 941.79,-466.62 942.71,-470.72"/>
</g>
<!-- src/utils/comparePasswords.ts -->
<g id="node30" class="node">
<title>src/utils/comparePasswords.ts</title>
<g id="a_node30"><a xlink:href="src/utils/comparePasswords.ts" xlink:title="comparePasswords.ts">
<path fill="#ddfeff" stroke="black" d="M1025.46,-499.88C1025.46,-499.88 931.29,-499.88 931.29,-499.88 928.33,-499.88 925.38,-496.92 925.38,-493.96 925.38,-493.96 925.38,-488.04 925.38,-488.04 925.38,-485.08 928.33,-482.12 931.29,-482.12 931.29,-482.12 1025.46,-482.12 1025.46,-482.12 1028.42,-482.12 1031.38,-485.08 1031.38,-488.04 1031.38,-488.04 1031.38,-493.96 1031.38,-493.96 1031.38,-496.92 1028.42,-499.88 1025.46,-499.88"/>
<text text-anchor="start" x="933.38" y="-487.32" font-family="Helvetica,sans-Serif" font-size="9.00">comparePasswords.ts</text>
</a>
</g>
</g>
<!-- src/utils/index.ts&#45;&gt;src/utils/comparePasswords.ts -->
<g id="edge48" class="edge">
<title>src/utils/index.ts&#45;&gt;src/utils/comparePasswords.ts</title>
<path fill="none" stroke="#000000" stroke-width="2" stroke-opacity="0.200000" d="M895.05,-487.97C901.54,-488.21 908.78,-488.47 916.19,-488.75"/>
<polygon fill="#000000" fill-opacity="0.200000" stroke="#000000" stroke-width="2" stroke-opacity="0.200000" points="915.83,-490.84 921.91,-488.96 915.99,-486.64 915.83,-490.84"/>
</g>
<!-- src/utils/hashPassword.ts -->
<g id="node31" class="node">
<title>src/utils/hashPassword.ts</title>
<g id="a_node31"><a xlink:href="src/utils/hashPassword.ts" xlink:title="hashPassword.ts">
<path fill="#ddfeff" stroke="black" d="M1015.33,-529.88C1015.33,-529.88 941.42,-529.88 941.42,-529.88 938.46,-529.88 935.5,-526.92 935.5,-523.96 935.5,-523.96 935.5,-518.04 935.5,-518.04 935.5,-515.08 938.46,-512.12 941.42,-512.12 941.42,-512.12 1015.33,-512.12 1015.33,-512.12 1018.29,-512.12 1021.25,-515.08 1021.25,-518.04 1021.25,-518.04 1021.25,-523.96 1021.25,-523.96 1021.25,-526.92 1018.29,-529.88 1015.33,-529.88"/>
<text text-anchor="start" x="943.5" y="-517.33" font-family="Helvetica,sans-Serif" font-size="9.00">hashPassword.ts</text>
</a>
</g>
</g>
<!-- src/utils/index.ts&#45;&gt;src/utils/hashPassword.ts -->
<g id="edge49" class="edge">
<title>src/utils/index.ts&#45;&gt;src/utils/hashPassword.ts</title>
<path fill="none" stroke="#000000" stroke-width="2" stroke-opacity="0.200000" d="M887.24,-496.35C894.45,-499.73 902.86,-503.36 910.75,-506 915.84,-507.7 921.22,-509.28 926.61,-510.71"/>
<polygon fill="#000000" fill-opacity="0.200000" stroke="#000000" stroke-width="2" stroke-opacity="0.200000" points="925.81,-512.67 932.14,-512.1 926.84,-508.6 925.81,-512.67"/>
</g>
<!-- src/utils/makeToken.ts -->
<g id="node32" class="node">
<title>src/utils/makeToken.ts</title>
<g id="a_node32"><a xlink:href="src/utils/makeToken.ts" xlink:title="makeToken.ts">
<path fill="#ddfeff" stroke="black" d="M1008.58,-559.88C1008.58,-559.88 948.17,-559.88 948.17,-559.88 945.21,-559.88 942.25,-556.92 942.25,-553.96 942.25,-553.96 942.25,-548.04 942.25,-548.04 942.25,-545.08 945.21,-542.12 948.17,-542.12 948.17,-542.12 1008.58,-542.12 1008.58,-542.12 1011.54,-542.12 1014.5,-545.08 1014.5,-548.04 1014.5,-548.04 1014.5,-553.96 1014.5,-553.96 1014.5,-556.92 1011.54,-559.88 1008.58,-559.88"/>
<text text-anchor="start" x="950.25" y="-547.33" font-family="Helvetica,sans-Serif" font-size="9.00">makeToken.ts</text>
</a>
</g>
</g>
<!-- src/utils/index.ts&#45;&gt;src/utils/makeToken.ts -->
<g id="edge51" class="edge">
<title>src/utils/index.ts&#45;&gt;src/utils/makeToken.ts</title>
<path fill="none" stroke="#000000" stroke-width="2" stroke-opacity="0.200000" d="M874.02,-496.15C880.95,-507.36 894.24,-526.06 910.75,-536 917.54,-540.09 925.33,-543.06 933.13,-545.23"/>
<polygon fill="#000000" fill-opacity="0.200000" stroke="#000000" stroke-width="2" stroke-opacity="0.200000" points="932.62,-547.27 938.94,-546.63 933.6,-543.18 932.62,-547.27"/>
</g>
<!-- src/utils/removeQueryAndFragment.ts -->
<g id="node33" class="node">
<title>src/utils/removeQueryAndFragment.ts</title>
<g id="a_node33"><a xlink:href="src/utils/removeQueryAndFragment.ts" xlink:title="removeQueryAndFragment.ts">
<path fill="#ddfeff" stroke="black" d="M1040.08,-589.88C1040.08,-589.88 916.67,-589.88 916.67,-589.88 913.71,-589.88 910.75,-586.92 910.75,-583.96 910.75,-583.96 910.75,-578.04 910.75,-578.04 910.75,-575.08 913.71,-572.12 916.67,-572.12 916.67,-572.12 1040.08,-572.12 1040.08,-572.12 1043.04,-572.12 1046,-575.08 1046,-578.04 1046,-578.04 1046,-583.96 1046,-583.96 1046,-586.92 1043.04,-589.88 1040.08,-589.88"/>
<text text-anchor="start" x="918.75" y="-577.33" font-family="Helvetica,sans-Serif" font-size="9.00">removeQueryAndFragment.ts</text>
</a>
</g>
</g>
<!-- src/utils/index.ts&#45;&gt;src/utils/removeQueryAndFragment.ts -->
<g id="edge52" class="edge">
<title>src/utils/index.ts&#45;&gt;src/utils/removeQueryAndFragment.ts</title>
<path fill="none" stroke="#000000" stroke-width="2" stroke-opacity="0.200000" d="M870.94,-496.21C875.39,-512.88 887.16,-548 910.75,-566 911.3,-566.42 911.86,-566.82 912.42,-567.22"/>
<polygon fill="#000000" fill-opacity="0.200000" stroke="#000000" stroke-width="2" stroke-opacity="0.200000" points="911.36,-569.03 917.6,-570.25 913.48,-565.41 911.36,-569.03"/>
</g>
<!-- src/discord/app.ts -->
<g id="node11" class="node">
<title>src/discord/app.ts</title>
<g id="a_node11"><a xlink:href="src/discord/app.ts" xlink:title="app.ts">
<path fill="#ddfeff" stroke="black" d="M463.08,-211.88C463.08,-211.88 420.92,-211.88 420.92,-211.88 417.96,-211.88 415,-208.92 415,-205.96 415,-205.96 415,-200.04 415,-200.04 415,-197.08 417.96,-194.12 420.92,-194.12 420.92,-194.12 463.08,-194.12 463.08,-194.12 466.04,-194.12 469,-197.08 469,-200.04 469,-200.04 469,-205.96 469,-205.96 469,-208.92 466.04,-211.88 463.08,-211.88"/>
<text text-anchor="start" x="429.62" y="-199.32" font-family="Helvetica,sans-Serif" font-size="9.00">app.ts</text>
</a>
</g>
</g>
<!-- src/discord/commands/index.ts -->
<g id="node12" class="node">
<title>src/discord/commands/index.ts</title>
<g id="a_node12"><a xlink:href="src/discord/commands/index.ts" xlink:title="index.ts">
<path fill="#ddfeff" stroke="black" d="M533.08,-177.88C533.08,-177.88 490.92,-177.88 490.92,-177.88 487.96,-177.88 485,-174.92 485,-171.96 485,-171.96 485,-166.04 485,-166.04 485,-163.08 487.96,-160.12 490.92,-160.12 490.92,-160.12 533.08,-160.12 533.08,-160.12 536.04,-160.12 539,-163.08 539,-166.04 539,-166.04 539,-171.96 539,-171.96 539,-174.92 536.04,-177.88 533.08,-177.88"/>
<text text-anchor="start" x="496.62" y="-165.32" font-family="Helvetica,sans-Serif" font-size="9.00">index.ts</text>
</a>
</g>
</g>
<!-- src/discord/app.ts&#45;&gt;src/discord/commands/index.ts -->
<g id="edge17" class="edge">
<title>src/discord/app.ts&#45;&gt;src/discord/commands/index.ts</title>
<path fill="none" stroke="#000000" stroke-width="2" stroke-opacity="0.200000" d="M461.58,-193.71C468.63,-190.19 476.79,-186.1 484.44,-182.28"/>
<polygon fill="#000000" fill-opacity="0.200000" stroke="#000000" stroke-width="2" stroke-opacity="0.200000" points="485.31,-184.19 489.73,-179.63 483.43,-180.44 485.31,-184.19"/>
</g>
<!-- src/discord/commands/ping.ts -->
<g id="node13" class="node">
<title>src/discord/commands/ping.ts</title>
<g id="a_node13"><a xlink:href="src/discord/commands/ping.ts" xlink:title="ping.ts">
<path fill="#ddfeff" stroke="black" d="M600.58,-147.88C600.58,-147.88 558.42,-147.88 558.42,-147.88 555.46,-147.88 552.5,-144.92 552.5,-141.96 552.5,-141.96 552.5,-136.04 552.5,-136.04 552.5,-133.08 555.46,-130.12 558.42,-130.12 558.42,-130.12 600.58,-130.12 600.58,-130.12 603.54,-130.12 606.5,-133.08 606.5,-136.04 606.5,-136.04 606.5,-141.96 606.5,-141.96 606.5,-144.92 603.54,-147.88 600.58,-147.88"/>
<text text-anchor="start" x="566.38" y="-135.32" font-family="Helvetica,sans-Serif" font-size="9.00">ping.ts</text>
</a>
</g>
</g>
<!-- src/discord/commands/index.ts&#45;&gt;src/discord/commands/ping.ts -->
<g id="edge18" class="edge">
<title>src/discord/commands/index.ts&#45;&gt;src/discord/commands/ping.ts</title>
<path fill="none" stroke="#000000" stroke-width="2" stroke-opacity="0.200000" d="M533.37,-159.67C538.71,-157.22 544.58,-154.54 550.26,-151.93"/>
<polygon fill="#000000" fill-opacity="0.200000" stroke="#000000" stroke-width="2" stroke-opacity="0.200000" points="551.04,-153.89 555.62,-149.48 549.29,-150.07 551.04,-153.89"/>
</g>
<!-- src/discord/commands/quit.ts -->
<g id="node14" class="node">
<title>src/discord/commands/quit.ts</title>
<g id="a_node14"><a xlink:href="src/discord/commands/quit.ts" xlink:title="quit.ts">
<path fill="#ddfeff" stroke="black" d="M600.58,-177.88C600.58,-177.88 558.42,-177.88 558.42,-177.88 555.46,-177.88 552.5,-174.92 552.5,-171.96 552.5,-171.96 552.5,-166.04 552.5,-166.04 552.5,-163.08 555.46,-160.12 558.42,-160.12 558.42,-160.12 600.58,-160.12 600.58,-160.12 603.54,-160.12 606.5,-163.08 606.5,-166.04 606.5,-166.04 606.5,-171.96 606.5,-171.96 606.5,-174.92 603.54,-177.88 600.58,-177.88"/>
<text text-anchor="start" x="567.5" y="-165.32" font-family="Helvetica,sans-Serif" font-size="9.00">quit.ts</text>
</a>
</g>
</g>
<!-- src/discord/commands/index.ts&#45;&gt;src/discord/commands/quit.ts -->
<g id="edge19" class="edge">
<title>src/discord/commands/index.ts&#45;&gt;src/discord/commands/quit.ts</title>
<path fill="none" stroke="#000000" stroke-width="2" stroke-opacity="0.200000" d="M539.26,-169C540.6,-169 541.95,-169 543.3,-169"/>
<polygon fill="#000000" fill-opacity="0.200000" stroke="#000000" stroke-width="2" stroke-opacity="0.200000" points="543.2,-171.1 549.2,-169 543.2,-166.9 543.2,-171.1"/>
</g>
<!-- src/discord/commands/register.ts -->
<g id="node15" class="node">
<title>src/discord/commands/register.ts</title>
<g id="a_node15"><a xlink:href="src/discord/commands/register.ts" xlink:title="register.ts">
<path fill="#ddfeff" stroke="black" d="M601.08,-207.88C601.08,-207.88 557.92,-207.88 557.92,-207.88 554.96,-207.88 552,-204.92 552,-201.96 552,-201.96 552,-196.04 552,-196.04 552,-193.08 554.96,-190.12 557.92,-190.12 557.92,-190.12 601.08,-190.12 601.08,-190.12 604.04,-190.12 607,-193.08 607,-196.04 607,-196.04 607,-201.96 607,-201.96 607,-204.92 604.04,-207.88 601.08,-207.88"/>
<text text-anchor="start" x="560" y="-195.32" font-family="Helvetica,sans-Serif" font-size="9.00">register.ts</text>
</a>
</g>
</g>
<!-- src/discord/commands/index.ts&#45;&gt;src/discord/commands/register.ts -->
<g id="edge20" class="edge">
<title>src/discord/commands/index.ts&#45;&gt;src/discord/commands/register.ts</title>
<path fill="none" stroke="#000000" stroke-width="2" stroke-opacity="0.200000" d="M533.37,-178.33C538.71,-180.78 544.58,-183.46 550.26,-186.07"/>
<polygon fill="#000000" fill-opacity="0.200000" stroke="#000000" stroke-width="2" stroke-opacity="0.200000" points="549.29,-187.93 555.62,-188.52 551.04,-184.11 549.29,-187.93"/>
</g>
<!-- src/types/discord/index.d.ts -->
<g id="node16" class="node">
<title>src/types/discord/index.d.ts</title>
<g id="a_node16"><a xlink:href="src/types/discord/index.d.ts" xlink:title="index.d.ts">
<path fill="#ddfeff" stroke="black" d="M695.33,-109.88C695.33,-109.88 652.92,-109.88 652.92,-109.88 649.96,-109.88 647,-106.92 647,-103.96 647,-103.96 647,-98.04 647,-98.04 647,-95.08 649.96,-92.12 652.92,-92.12 652.92,-92.12 695.33,-92.12 695.33,-92.12 698.29,-92.12 701.25,-95.08 701.25,-98.04 701.25,-98.04 701.25,-103.96 701.25,-103.96 701.25,-106.92 698.29,-109.88 695.33,-109.88"/>
<text text-anchor="start" x="655" y="-97.33" font-family="Helvetica,sans-Serif" font-size="9.00">index.d.ts</text>
</a>
</g>
</g>
<!-- src/discord/commands/index.ts&#45;&gt;src/types/discord/index.d.ts -->
<g id="edge21" class="edge">
<title>src/discord/commands/index.ts&#45;&gt;src/types/discord/index.d.ts</title>
<path fill="none" stroke="#000000" stroke-width="2" stroke-opacity="0.200000" d="M518.32,-159.77C524.85,-149.34 536.95,-132.66 552,-124 578.27,-108.88 612.54,-103.45 637.92,-101.62"/>
<polygon fill="#000000" fill-opacity="0.200000" stroke="#000000" stroke-width="2" stroke-opacity="0.200000" points="637.95,-103.72 643.82,-101.27 637.7,-99.53 637.95,-103.72"/>
</g>
<!-- src/discord/commands/ping.ts&#45;&gt;src/types/discord/index.d.ts -->
<g id="edge22" class="edge">
<title>src/discord/commands/ping.ts&#45;&gt;src/types/discord/index.d.ts</title>
<path fill="none" stroke="#000000" stroke-width="2" stroke-opacity="0.200000" d="M602.92,-129.8C614.78,-124.94 629.52,-118.89 642.42,-113.6"/>
<polygon fill="#000000" fill-opacity="0.200000" stroke="#000000" stroke-width="2" stroke-opacity="0.200000" points="643.03,-115.61 647.79,-111.39 641.44,-111.73 643.03,-115.61"/>
</g>
<!-- src/discord/commands/quit.ts&#45;&gt;src/db/index.ts -->
<g id="edge23" class="edge">
<title>src/discord/commands/quit.ts&#45;&gt;src/db/index.ts</title>
<path fill="none" stroke="#000000" stroke-width="2" stroke-opacity="0.200000" d="M606.94,-174.8C612.7,-176.98 618.43,-179.95 623,-184 648.39,-206.48 662.37,-244.79 668.76,-267.21"/>
<polygon fill="#000000" fill-opacity="0.200000" stroke="#000000" stroke-width="2" stroke-opacity="0.200000" points="666.68,-267.57 670.26,-272.83 670.74,-266.49 666.68,-267.57"/>
</g>
<!-- src/discord/commands/quit.ts&#45;&gt;src/types/discord/index.d.ts -->
<g id="edge24" class="edge">
<title>src/discord/commands/quit.ts&#45;&gt;src/types/discord/index.d.ts</title>
<path fill="none" stroke="#000000" stroke-width="2" stroke-opacity="0.200000" d="M606.59,-161.99C612.24,-159.88 618.01,-157.24 623,-154 638.16,-144.15 651.99,-128.81 661.27,-117.16"/>
<polygon fill="#000000" fill-opacity="0.200000" stroke="#000000" stroke-width="2" stroke-opacity="0.200000" points="662.84,-118.57 664.83,-112.53 659.51,-116.01 662.84,-118.57"/>
</g>
<!-- src/discord/commands/register.ts&#45;&gt;src/db/index.ts -->
<g id="edge25" class="edge">
<title>src/discord/commands/register.ts&#45;&gt;src/db/index.ts</title>
<path fill="none" stroke="#000000" stroke-width="2" stroke-opacity="0.200000" d="M590.41,-208.2C606.29,-222.95 637.59,-252.01 656.8,-269.84"/>
<polygon fill="#000000" fill-opacity="0.200000" stroke="#000000" stroke-width="2" stroke-opacity="0.200000" points="655.24,-271.26 661.07,-273.8 658.1,-268.18 655.24,-271.26"/>
</g>
<!-- src/discord/commands/register.ts&#45;&gt;src/types/discord/index.d.ts -->
<g id="edge26" class="edge">
<title>src/discord/commands/register.ts&#45;&gt;src/types/discord/index.d.ts</title>
<path fill="none" stroke="#000000" stroke-width="2" stroke-opacity="0.200000" d="M607.44,-193.1C613.05,-190.93 618.59,-187.99 623,-184 629.19,-178.4 626.97,-174.31 631,-167 640.57,-149.65 652.9,-130.66 661.74,-117.53"/>
<polygon fill="#000000" fill-opacity="0.200000" stroke="#000000" stroke-width="2" stroke-opacity="0.200000" points="663.4,-118.82 665.04,-112.67 659.93,-116.46 663.4,-118.82"/>
</g>
<!-- src/discord/index.ts -->
<g id="node17" class="node">
<title>src/discord/index.ts</title>
<g id="a_node17"><a xlink:href="src/discord/index.ts" xlink:title="index.ts">
<path fill="#ddfeff" stroke="black" d="M315.33,-233.88C315.33,-233.88 273.17,-233.88 273.17,-233.88 270.21,-233.88 267.25,-230.92 267.25,-227.96 267.25,-227.96 267.25,-222.04 267.25,-222.04 267.25,-219.08 270.21,-216.12 273.17,-216.12 273.17,-216.12 315.33,-216.12 315.33,-216.12 318.29,-216.12 321.25,-219.08 321.25,-222.04 321.25,-222.04 321.25,-227.96 321.25,-227.96 321.25,-230.92 318.29,-233.88 315.33,-233.88"/>
<text text-anchor="start" x="278.88" y="-221.32" font-family="Helvetica,sans-Serif" font-size="9.00">index.ts</text>
</a>
</g>
</g>
<!-- src/discord/index.ts&#45;&gt;src/discord/app.ts -->
<g id="edge27" class="edge">
<title>src/discord/index.ts&#45;&gt;src/discord/app.ts</title>
<path fill="none" stroke="#000000" stroke-width="2" stroke-opacity="0.200000" d="M315.94,-215.71C321.76,-213.47 328.16,-211.34 334.25,-210 357.79,-204.83 384.9,-203.1 405.91,-202.65"/>
<polygon fill="#000000" fill-opacity="0.200000" stroke="#000000" stroke-width="2" stroke-opacity="0.200000" points="405.81,-204.76 411.78,-202.57 405.75,-200.56 405.81,-204.76"/>
</g>
<!-- src/discord/uploadFile.ts -->
<g id="node18" class="node">
<title>src/discord/uploadFile.ts</title>
<g id="a_node18"><a xlink:href="src/discord/uploadFile.ts" xlink:title="uploadFile.ts">
<path fill="#ddfeff" stroke="black" d="M396.08,-233.88C396.08,-233.88 340.17,-233.88 340.17,-233.88 337.21,-233.88 334.25,-230.92 334.25,-227.96 334.25,-227.96 334.25,-222.04 334.25,-222.04 334.25,-219.08 337.21,-216.12 340.17,-216.12 340.17,-216.12 396.08,-216.12 396.08,-216.12 399.04,-216.12 402,-219.08 402,-222.04 402,-222.04 402,-227.96 402,-227.96 402,-230.92 399.04,-233.88 396.08,-233.88"/>
<text text-anchor="start" x="342.25" y="-221.32" font-family="Helvetica,sans-Serif" font-size="9.00">uploadFile.ts</text>
</a>
</g>
</g>
<!-- src/discord/index.ts&#45;&gt;src/discord/uploadFile.ts -->
<g id="edge28" class="edge">
<title>src/discord/index.ts&#45;&gt;src/discord/uploadFile.ts</title>
<path fill="none" stroke="#000000" stroke-width="2" stroke-opacity="0.200000" d="M321.61,-225C322.73,-225 323.87,-225 325.02,-225"/>
<polygon fill="#000000" fill-opacity="0.200000" stroke="#000000" stroke-width="2" stroke-opacity="0.200000" points="324.89,-227.1 330.89,-225 324.89,-222.9 324.89,-227.1"/>
</g>
<!-- src/discord/uploadFile.ts&#45;&gt;src/discord/app.ts -->
<g id="edge29" class="edge">
<title>src/discord/uploadFile.ts&#45;&gt;src/discord/app.ts</title>
<path fill="none" stroke="#000000" stroke-width="2" stroke-opacity="0.200000" d="M399.61,-215.67C401.82,-214.99 404.05,-214.31 406.29,-213.63"/>
<polygon fill="#000000" fill-opacity="0.200000" stroke="#000000" stroke-width="2" stroke-opacity="0.200000" points="406.77,-215.67 411.89,-211.91 405.54,-211.66 406.77,-215.67"/>
</g>
<!-- src/index.ts -->
<g id="node19" class="node">
<title>src/index.ts</title>
<g id="a_node19"><a xlink:href="src/index.ts" xlink:title="index.ts">
<path fill="#ddfeff" stroke="black" d="M64.08,-423.88C64.08,-423.88 21.92,-423.88 21.92,-423.88 18.96,-423.88 16,-420.92 16,-417.96 16,-417.96 16,-412.04 16,-412.04 16,-409.08 18.96,-406.12 21.92,-406.12 21.92,-406.12 64.08,-406.12 64.08,-406.12 67.04,-406.12 70,-409.08 70,-412.04 70,-412.04 70,-417.96 70,-417.96 70,-420.92 67.04,-423.88 64.08,-423.88"/>
<text text-anchor="start" x="27.62" y="-411.32" font-family="Helvetica,sans-Serif" font-size="9.00">index.ts</text>
</a>
</g>
</g>
<!-- src/index.ts&#45;&gt;src/discord/index.ts -->
<g id="edge30" class="edge">
<title>src/index.ts&#45;&gt;src/discord/index.ts</title>
<path fill="none" stroke="#000000" stroke-width="2" stroke-opacity="0.200000" d="M47.18,-405.8C58.01,-376.09 96.55,-282.4 164,-244 192.78,-227.62 230.77,-223.74 258.1,-223.43"/>
<polygon fill="#000000" fill-opacity="0.200000" stroke="#000000" stroke-width="2" stroke-opacity="0.200000" points="257.91,-225.53 263.91,-223.45 257.92,-221.33 257.91,-225.53"/>
</g>
<!-- src/routes/v1/auth/index.ts -->
<g id="node20" class="node">
<title>src/routes/v1/auth/index.ts</title>
<g id="a_node20"><a xlink:href="src/routes/v1/auth/index.ts" xlink:title="index.ts">
<path fill="#ddfeff" stroke="black" d="M150.08,-468.88C150.08,-468.88 107.92,-468.88 107.92,-468.88 104.96,-468.88 102,-465.92 102,-462.96 102,-462.96 102,-457.04 102,-457.04 102,-454.08 104.96,-451.12 107.92,-451.12 107.92,-451.12 150.08,-451.12 150.08,-451.12 153.04,-451.12 156,-454.08 156,-457.04 156,-457.04 156,-462.96 156,-462.96 156,-465.92 153.04,-468.88 150.08,-468.88"/>
<text text-anchor="start" x="113.62" y="-456.32" font-family="Helvetica,sans-Serif" font-size="9.00">index.ts</text>
</a>
</g>
</g>
<!-- src/index.ts&#45;&gt;src/routes/v1/auth/index.ts -->
<g id="edge31" class="edge">
<title>src/index.ts&#45;&gt;src/routes/v1/auth/index.ts</title>
<path fill="none" stroke="#000000" stroke-width="2" stroke-opacity="0.200000" d="M56.57,-424.3C62.84,-428.73 70.64,-433.93 78,-438 83.76,-441.18 90.08,-444.26 96.22,-447.05"/>
<polygon fill="#000000" fill-opacity="0.200000" stroke="#000000" stroke-width="2" stroke-opacity="0.200000" points="95.32,-448.95 101.66,-449.44 97.01,-445.1 95.32,-448.95"/>
</g>
<!-- src/routes/v1/file/index.ts -->
<g id="node21" class="node">
<title>src/routes/v1/file/index.ts</title>
<g id="a_node21"><a xlink:href="src/routes/v1/file/index.ts" xlink:title="index.ts">
<path fill="#ddfeff" stroke="black" d="M150.08,-378.88C150.08,-378.88 107.92,-378.88 107.92,-378.88 104.96,-378.88 102,-375.92 102,-372.96 102,-372.96 102,-367.04 102,-367.04 102,-364.08 104.96,-361.12 107.92,-361.12 107.92,-361.12 150.08,-361.12 150.08,-361.12 153.04,-361.12 156,-364.08 156,-367.04 156,-367.04 156,-372.96 156,-372.96 156,-375.92 153.04,-378.88 150.08,-378.88"/>
<text text-anchor="start" x="113.62" y="-366.32" font-family="Helvetica,sans-Serif" font-size="9.00">index.ts</text>
</a>
</g>
</g>
<!-- src/index.ts&#45;&gt;src/routes/v1/file/index.ts -->
<g id="edge32" class="edge">
<title>src/index.ts&#45;&gt;src/routes/v1/file/index.ts</title>
<path fill="none" stroke="#000000" stroke-width="2" stroke-opacity="0.200000" d="M61.4,-405.68C73.34,-399.28 89.38,-390.69 102.72,-383.54"/>
<polygon fill="#000000" fill-opacity="0.200000" stroke="#000000" stroke-width="2" stroke-opacity="0.200000" points="103.65,-385.43 107.95,-380.74 101.67,-381.72 103.65,-385.43"/>
</g>
<!-- src/routes/v1/hello.ts -->
<g id="node22" class="node">
<title>src/routes/v1/hello.ts</title>
<g id="a_node22"><a xlink:href="src/routes/v1/hello.ts" xlink:title="hello.ts">
<path fill="#ddfeff" stroke="black" d="M150.08,-520.88C150.08,-520.88 107.92,-520.88 107.92,-520.88 104.96,-520.88 102,-517.92 102,-514.96 102,-514.96 102,-509.04 102,-509.04 102,-506.08 104.96,-503.12 107.92,-503.12 107.92,-503.12 150.08,-503.12 150.08,-503.12 153.04,-503.12 156,-506.08 156,-509.04 156,-509.04 156,-514.96 156,-514.96 156,-517.92 153.04,-520.88 150.08,-520.88"/>
<text text-anchor="start" x="114.75" y="-508.32" font-family="Helvetica,sans-Serif" font-size="9.00">hello.ts</text>
</a>
</g>
</g>
<!-- src/index.ts&#45;&gt;src/routes/v1/hello.ts -->
<g id="edge33" class="edge">
<title>src/index.ts&#45;&gt;src/routes/v1/hello.ts</title>
<path fill="none" stroke="#000000" stroke-width="2" stroke-opacity="0.200000" d="M45.13,-424.24C47.71,-441.37 55.67,-478.12 78,-498 82.39,-501.91 87.78,-504.73 93.39,-506.77"/>
<polygon fill="#000000" fill-opacity="0.200000" stroke="#000000" stroke-width="2" stroke-opacity="0.200000" points="92.4,-508.67 98.75,-508.37 93.6,-504.65 92.4,-508.67"/>
</g>
<!-- src/routes/v1/auth/login.ts -->
<g id="node25" class="node">
<title>src/routes/v1/auth/login.ts</title>
<g id="a_node25"><a xlink:href="src/routes/v1/auth/login.ts" xlink:title="login.ts">
<path fill="#ddfeff" stroke="black" d="M220.08,-468.88C220.08,-468.88 177.92,-468.88 177.92,-468.88 174.96,-468.88 172,-465.92 172,-462.96 172,-462.96 172,-457.04 172,-457.04 172,-454.08 174.96,-451.12 177.92,-451.12 177.92,-451.12 220.08,-451.12 220.08,-451.12 223.04,-451.12 226,-454.08 226,-457.04 226,-457.04 226,-462.96 226,-462.96 226,-465.92 223.04,-468.88 220.08,-468.88"/>
<text text-anchor="start" x="184.38" y="-456.32" font-family="Helvetica,sans-Serif" font-size="9.00">login.ts</text>
</a>
</g>
</g>
<!-- src/routes/v1/auth/index.ts&#45;&gt;src/routes/v1/auth/login.ts -->
<g id="edge35" class="edge">
<title>src/routes/v1/auth/index.ts&#45;&gt;src/routes/v1/auth/login.ts</title>
<path fill="none" stroke="#000000" stroke-width="2" stroke-opacity="0.200000" d="M156.49,-460C158.7,-460 160.97,-460 163.24,-460"/>
<polygon fill="#000000" fill-opacity="0.200000" stroke="#000000" stroke-width="2" stroke-opacity="0.200000" points="162.9,-462.1 168.9,-460 162.9,-457.9 162.9,-462.1"/>
</g>
<!-- src/middleware/auth.ts -->
<g id="node23" class="node">
<title>src/middleware/auth.ts</title>
<g id="a_node23"><a xlink:href="src/middleware/auth.ts" xlink:title="auth.ts">
<path fill="#ddfeff" stroke="black" d="M220.08,-272.88C220.08,-272.88 177.92,-272.88 177.92,-272.88 174.96,-272.88 172,-269.92 172,-266.96 172,-266.96 172,-261.04 172,-261.04 172,-258.08 174.96,-255.12 177.92,-255.12 177.92,-255.12 220.08,-255.12 220.08,-255.12 223.04,-255.12 226,-258.08 226,-261.04 226,-261.04 226,-266.96 226,-266.96 226,-269.92 223.04,-272.88 220.08,-272.88"/>
<text text-anchor="start" x="185.5" y="-260.32" font-family="Helvetica,sans-Serif" font-size="9.00">auth.ts</text>
</a>
</g>
</g>
<!-- src/routes/v1/file/index.ts&#45;&gt;src/middleware/auth.ts -->
<g id="edge42" class="edge">
<title>src/routes/v1/file/index.ts&#45;&gt;src/middleware/auth.ts</title>
<path fill="none" stroke="#000000" stroke-width="2" stroke-opacity="0.200000" d="M152.31,-361.01C153.71,-359.83 154.97,-358.49 156,-357 175.81,-328.33 143.5,-307.18 164,-279 164.38,-278.47 164.79,-277.96 165.22,-277.47"/>
<polygon fill="#000000" fill-opacity="0.200000" stroke="#000000" stroke-width="2" stroke-opacity="0.200000" points="166.16,-279.42 169.41,-273.96 163.46,-276.2 166.16,-279.42"/>
</g>
<!-- src/middleware/upload.ts -->
<g id="node24" class="node">
<title>src/middleware/upload.ts</title>
<g id="a_node24"><a xlink:href="src/middleware/upload.ts" xlink:title="upload.ts">
<path fill="#ddfeff" stroke="black" d="M220.08,-302.88C220.08,-302.88 177.92,-302.88 177.92,-302.88 174.96,-302.88 172,-299.92 172,-296.96 172,-296.96 172,-291.04 172,-291.04 172,-288.08 174.96,-285.12 177.92,-285.12 177.92,-285.12 220.08,-285.12 220.08,-285.12 223.04,-285.12 226,-288.08 226,-291.04 226,-291.04 226,-296.96 226,-296.96 226,-299.92 223.04,-302.88 220.08,-302.88"/>
<text text-anchor="start" x="180.25" y="-290.32" font-family="Helvetica,sans-Serif" font-size="9.00">upload.ts</text>
</a>
</g>
</g>
<!-- src/routes/v1/file/index.ts&#45;&gt;src/middleware/upload.ts -->
<g id="edge43" class="edge">
<title>src/routes/v1/file/index.ts&#45;&gt;src/middleware/upload.ts</title>
<path fill="none" stroke="#000000" stroke-width="2" stroke-opacity="0.200000" d="M151.06,-360.71C152.81,-359.57 154.49,-358.34 156,-357 170.69,-344.03 182.51,-324.81 189.83,-311.01"/>
<polygon fill="#000000" fill-opacity="0.200000" stroke="#000000" stroke-width="2" stroke-opacity="0.200000" points="191.57,-312.22 192.41,-305.92 187.82,-310.32 191.57,-312.22"/>
</g>
<!-- src/routes/v1/file/getFile.ts -->
<g id="node26" class="node">
<title>src/routes/v1/file/getFile.ts</title>
<g id="a_node26"><a xlink:href="src/routes/v1/file/getFile.ts" xlink:title="getFile.ts">
<path fill="#ddfeff" stroke="black" d="M220.08,-408.88C220.08,-408.88 177.92,-408.88 177.92,-408.88 174.96,-408.88 172,-405.92 172,-402.96 172,-402.96 172,-397.04 172,-397.04 172,-394.08 174.96,-391.12 177.92,-391.12 177.92,-391.12 220.08,-391.12 220.08,-391.12 223.04,-391.12 226,-394.08 226,-397.04 226,-397.04 226,-402.96 226,-402.96 226,-405.92 223.04,-408.88 220.08,-408.88"/>
<text text-anchor="start" x="181" y="-396.32" font-family="Helvetica,sans-Serif" font-size="9.00">getFile.ts</text>
</a>
</g>
</g>
<!-- src/routes/v1/file/index.ts&#45;&gt;src/routes/v1/file/getFile.ts -->
<g id="edge40" class="edge">
<title>src/routes/v1/file/index.ts&#45;&gt;src/routes/v1/file/getFile.ts</title>
<path fill="none" stroke="#000000" stroke-width="2" stroke-opacity="0.200000" d="M151.14,-379.33C156.83,-381.83 163.07,-384.59 169.1,-387.25"/>
<polygon fill="#000000" fill-opacity="0.200000" stroke="#000000" stroke-width="2" stroke-opacity="0.200000" points="168,-389.06 174.33,-389.56 169.69,-385.22 168,-389.06"/>
</g>
<!-- src/routes/v1/file/postFile.ts -->
<g id="node27" class="node">
<title>src/routes/v1/file/postFile.ts</title>
<g id="a_node27"><a xlink:href="src/routes/v1/file/postFile.ts" xlink:title="postFile.ts">
<path fill="#ddfeff" stroke="black" d="M221.33,-378.88C221.33,-378.88 176.67,-378.88 176.67,-378.88 173.71,-378.88 170.75,-375.92 170.75,-372.96 170.75,-372.96 170.75,-367.04 170.75,-367.04 170.75,-364.08 173.71,-361.12 176.67,-361.12 176.67,-361.12 221.33,-361.12 221.33,-361.12 224.29,-361.12 227.25,-364.08 227.25,-367.04 227.25,-367.04 227.25,-372.96 227.25,-372.96 227.25,-375.92 224.29,-378.88 221.33,-378.88"/>
<text text-anchor="start" x="178.75" y="-366.32" font-family="Helvetica,sans-Serif" font-size="9.00">postFile.ts</text>
</a>
</g>
</g>
<!-- src/routes/v1/file/index.ts&#45;&gt;src/routes/v1/file/postFile.ts -->
<g id="edge41" class="edge">
<title>src/routes/v1/file/index.ts&#45;&gt;src/routes/v1/file/postFile.ts</title>
<path fill="none" stroke="#000000" stroke-width="2" stroke-opacity="0.200000" d="M156.49,-370C158.22,-370 159.98,-370 161.75,-370"/>
<polygon fill="#000000" fill-opacity="0.200000" stroke="#000000" stroke-width="2" stroke-opacity="0.200000" points="161.55,-372.1 167.55,-370 161.55,-367.9 161.55,-372.1"/>
</g>
<!-- src/routes/v1/hello.ts&#45;&gt;src/utils/index.ts -->
<g id="edge47" class="edge">
<title>src/routes/v1/hello.ts&#45;&gt;src/utils/index.ts</title>
<path fill="none" stroke="#000000" stroke-width="2" stroke-opacity="0.200000" d="M156.29,-510.96C188.55,-509.77 244.91,-508 293.25,-508 293.25,-508 293.25,-508 675.12,-508 730.12,-508 793.47,-499.35 831.79,-493.15"/>
<polygon fill="#000000" fill-opacity="0.200000" stroke="#000000" stroke-width="2" stroke-opacity="0.200000" points="831.94,-495.25 837.52,-492.21 831.25,-491.11 831.94,-495.25"/>
</g>
<!-- src/middleware/auth.ts&#45;&gt;src/db/index.ts -->
<g id="edge34" class="edge">
<title>src/middleware/auth.ts&#45;&gt;src/db/index.ts</title>
<path fill="none" stroke="#000000" stroke-width="2" stroke-opacity="0.200000" d="M226.3,-267.06C259.19,-270.61 317.24,-276 367.12,-276 367.12,-276 367.12,-276 513,-276 556.14,-276 605.71,-279.3 638.13,-281.9"/>
<polygon fill="#000000" fill-opacity="0.200000" stroke="#000000" stroke-width="2" stroke-opacity="0.200000" points="637.63,-283.97 643.78,-282.36 637.97,-279.78 637.63,-283.97"/>
</g>
<!-- src/routes/v1/auth/login.ts&#45;&gt;src/db/index.ts -->
<g id="edge36" class="edge">
<title>src/routes/v1/auth/login.ts&#45;&gt;src/db/index.ts</title>
<path fill="none" stroke="#000000" stroke-width="2" stroke-opacity="0.200000" d="M226.29,-463.31C259.17,-467.17 317.21,-473 367.12,-473 367.12,-473 367.12,-473 513,-473 601.84,-473 651.77,-349.82 667.58,-302.87"/>
<polygon fill="#000000" fill-opacity="0.200000" stroke="#000000" stroke-width="2" stroke-opacity="0.200000" points="669.56,-303.56 669.42,-297.2 665.57,-302.26 669.56,-303.56"/>
</g>
<!-- src/routes/v1/auth/login.ts&#45;&gt;src/utils/index.ts -->
<g id="edge37" class="edge">
<title>src/routes/v1/auth/login.ts&#45;&gt;src/utils/index.ts</title>
<path fill="none" stroke="#000000" stroke-width="2" stroke-opacity="0.200000" d="M226.42,-466.95C259.18,-474.95 316.87,-487 367.12,-487 367.12,-487 367.12,-487 675.12,-487 729.79,-487 793.23,-487 831.66,-487"/>
<polygon fill="#000000" fill-opacity="0.200000" stroke="#000000" stroke-width="2" stroke-opacity="0.200000" points="831.38,-489.1 837.38,-487 831.38,-484.9 831.38,-489.1"/>
</g>
<!-- src/routes/v1/file/getFile.ts&#45;&gt;src/db/index.ts -->
<g id="edge38" class="edge">
<title>src/routes/v1/file/getFile.ts&#45;&gt;src/db/index.ts</title>
<path fill="none" stroke="#000000" stroke-width="2" stroke-opacity="0.200000" d="M226.35,-392.34C234.35,-390 243.16,-387.4 251.25,-385 302.82,-369.67 313.33,-350 367.12,-350 367.12,-350 367.12,-350 513,-350 566.71,-350 623.6,-318.22 652.96,-299.1"/>
<polygon fill="#000000" fill-opacity="0.200000" stroke="#000000" stroke-width="2" stroke-opacity="0.200000" points="653.8,-301.07 657.63,-295.99 651.47,-297.57 653.8,-301.07"/>
</g>
<!-- src/routes/v1/file/getFile.ts&#45;&gt;src/utils/index.ts -->
<g id="edge39" class="edge">
<title>src/routes/v1/file/getFile.ts&#45;&gt;src/utils/index.ts</title>
<path fill="none" stroke="#000000" stroke-width="2" stroke-opacity="0.200000" d="M213.16,-409.25C223.84,-416.99 239.07,-428.57 251.25,-440 255.15,-443.66 254.47,-446.58 259.25,-449 302.22,-470.73 318.97,-459 367.12,-459 367.12,-459 367.12,-459 675.12,-459 730.22,-459 793.29,-470.47 831.56,-478.73"/>
<polygon fill="#000000" fill-opacity="0.200000" stroke="#000000" stroke-width="2" stroke-opacity="0.200000" points="831,-480.76 837.31,-480 831.9,-476.66 831,-480.76"/>
</g>
<!-- src/routes/v1/file/postFile.ts&#45;&gt;src/db/index.ts -->
<g id="edge44" class="edge">
<title>src/routes/v1/file/postFile.ts&#45;&gt;src/db/index.ts</title>
<path fill="none" stroke="#000000" stroke-width="2" stroke-opacity="0.200000" d="M210.94,-360.86C236.51,-340.47 302.91,-293 367.12,-293 367.12,-293 367.12,-293 513,-293 556.12,-293 605.7,-290.07 638.12,-287.76"/>
<polygon fill="#000000" fill-opacity="0.200000" stroke="#000000" stroke-width="2" stroke-opacity="0.200000" points="637.94,-289.87 643.78,-287.34 637.64,-285.69 637.94,-289.87"/>
</g>
<!-- src/routes/v1/file/postFile.ts&#45;&gt;src/utils/index.ts -->
<g id="edge46" class="edge">
<title>src/routes/v1/file/postFile.ts&#45;&gt;src/utils/index.ts</title>
<path fill="none" stroke="#000000" stroke-width="2" stroke-opacity="0.200000" d="M227.73,-377.06C235.45,-379.31 243.76,-382 251.25,-385 305.08,-406.58 309.13,-445 367.12,-445 367.12,-445 367.12,-445 675.12,-445 741.88,-445 761.94,-435.39 824.75,-458 833.75,-461.24 842.64,-466.91 849.9,-472.38"/>
<polygon fill="#000000" fill-opacity="0.200000" stroke="#000000" stroke-width="2" stroke-opacity="0.200000" points="848.19,-473.71 854.19,-475.8 850.81,-470.42 848.19,-473.71"/>
</g>
<!-- src/routes/v1/file/postFile.ts&#45;&gt;src/discord/index.ts -->
<g id="edge45" class="edge">
<title>src/routes/v1/file/postFile.ts&#45;&gt;src/discord/index.ts</title>
<path fill="none" stroke="#000000" stroke-width="2" stroke-opacity="0.200000" d="M218.72,-360.77C229.92,-354.26 243.45,-344.49 251.25,-332 261.55,-315.51 252.84,-307.35 259.25,-289 265.17,-272.05 275.06,-254.1 282.65,-241.54"/>
<polygon fill="#000000" fill-opacity="0.200000" stroke="#000000" stroke-width="2" stroke-opacity="0.200000" points="284.27,-242.91 285.65,-236.7 280.7,-240.7 284.27,-242.91"/>
</g>
<!-- src/types/express/index.d.ts -->
<g id="node28" class="node">
<title>src/types/express/index.d.ts</title>
<g id="a_node28"><a xlink:href="src/types/express/index.d.ts" xlink:title="index.d.ts">
<path fill="#ccffcc" stroke="black" d="M695.33,-49.88C695.33,-49.88 652.92,-49.88 652.92,-49.88 649.96,-49.88 647,-46.92 647,-43.96 647,-43.96 647,-38.04 647,-38.04 647,-35.08 649.96,-32.12 652.92,-32.12 652.92,-32.12 695.33,-32.12 695.33,-32.12 698.29,-32.12 701.25,-35.08 701.25,-38.04 701.25,-38.04 701.25,-43.96 701.25,-43.96 701.25,-46.92 698.29,-49.88 695.33,-49.88"/>
<text text-anchor="start" x="655" y="-37.33" font-family="Helvetica,sans-Serif" font-size="9.00">index.d.ts</text>
</a>
</g>
</g>
</g>
</svg>
